# xmcd
#
# Track frame offsets:
#	150
#	17445
#	35571
#	51648
#	70880
#	88191
#	104620
#	127112
#	144178
#	158338
#	175553
#	191680
#	206370
#	219537
#	234162
#	249369
#	263074
#	279804
#	297499
#	314214
#	328300
#
# Disc length: 4595 seconds
#
# Revision: 0
# Processed by: cddbd v1.5.2PL0 Copyright (c) Steve Scherf et al.
# Submitted via: dBpowerAMP V4.0
#
DISCID=3711f115
DTITLE=Various Artist - ERG Nu Country Traxx Vol. 184 CAN
DYEAR=2009
DGENRE=Country
TTITLE0=Carrie Underwood - Cowboy Casanova
TTITLE1=Road Hammers, The - Goodbye Dust
TTITLE2=Darius Rucker - History in The Making
TTITLE3=Jo Hikk Band - Dancing With The Devil's Daughter
TTITLE4=Tim McGraw - Southern Voice
TTITLE5=Terri Clark - If You Want Fire
TTITLE6=Taylor Swift - Fifteen
TTITLE7=Tara Oram - Living The Dream
TTITLE8=Lynyrd Skynyrd - Simple Life
TTITLE9=Alex J. Robinson - Possibilities
TTITLE10=Big Kenny - Long After I'm Gone
TTITLE11=Codie Prevost - Breathtaking
TTITLE12=Jypsi - Mr. Officer
TTITLE13=Shari Lynn - Play Now
TTITLE14=Houston Country - I Can't Make It Rain
TTITLE15=Steel Magnolia - Keep On Lovin' You
TTITLE16=Mica Roberts - Days You Live For
TTITLE17=Bomshel - 19 And Crazy
TTITLE18=Blackberry Smoke - Good One Coming On
TTITLE19=Michelle Branch - Sooner Or Later
TTITLE20=Lee Brice - Love Like Crazy
EXTD=
EXTT0=
EXTT1=
EXTT2=
EXTT3=
EXTT4=
EXTT5=
EXTT6=
EXTT7=
EXTT8=
EXTT9=
EXTT10=
EXTT11=
EXTT12=
EXTT13=
EXTT14=
EXTT15=
EXTT16=
EXTT17=
EXTT18=
EXTT19=
EXTT20=
PLAYORDER=
